Coordinates
version=1
nRows=54
nColumns=12
inDegrees=yes

Units are S.I. units (second, meters, Newtons, ...)
Angles are in degrees

endheader
time	SC_y	SC_z	SC_x	AC_y	AC_z	AC_x	GH_y	GH_z	GH_yy	EL_x	PS_y
       0.0              -41.05          7.901          12.59          48.52          8.779          13.35          154.5          26.94         -15.57          122.1           72.6
    0.0333              -41.05          7.903          12.59          48.53          8.777          13.34          154.5          26.94         -15.57          122.1          72.59
    0.0666              -41.05          7.904          12.59          48.53          8.774          13.34          154.5          26.94         -15.57          122.1          72.58
    0.0999              -41.04          7.906          12.59          48.53           8.77          13.34          154.5          26.94         -15.57          122.0          72.57
    0.1332              -41.04          7.908          12.59          48.53          8.767          13.34          154.5          26.95         -15.57          122.0          72.56
    0.1665              -41.03          7.911          12.58          48.53          8.763          13.33          154.5          26.95         -15.57          122.0          72.55
    0.1998              -41.03          7.913          12.58          48.53          8.759          13.33          154.5          26.95         -15.57          122.0          72.54
    0.2331              -41.02          7.915          12.58          48.54          8.755          13.33          154.5          26.96         -15.57          122.0          72.53
    0.2664              -41.02          7.918          12.58          48.54          8.751          13.33          154.5          26.96         -15.57          122.0          72.52
    0.2997              -41.01          7.921          12.58          48.54          8.746          13.32          154.5          26.97         -15.57          122.0          72.51
     0.333               -41.0          7.924          12.57          48.54          8.741          13.32          154.5          26.97         -15.57          122.0          72.49
    0.3663              -40.99          7.927          12.57          48.55          8.736          13.31          154.5          26.98         -15.57          122.0          72.48
    0.3996              -40.99          7.931          12.57          48.55           8.73          13.31          154.5          26.98         -15.57          121.9          72.46
    0.4329              -40.98          7.935          12.57          48.55          8.723           13.3          154.5          26.99         -15.57          121.9          72.45
    0.4662              -40.97          7.939          12.56          48.56          8.716           13.3          154.5          26.99         -15.57          121.9          72.43
    0.4995              -40.96          7.943          12.56          48.56          8.709          13.29          154.5           27.0         -15.57          121.9          72.41
    0.5328              -40.95          7.948          12.56          48.57          8.701          13.29          154.5          27.01         -15.57          121.9          72.39
    0.5661              -40.93          7.954          12.55          48.57          8.692          13.28          154.5          27.02         -15.57          121.9          72.36
    0.5994              -40.92           7.96          12.55          48.58          8.682          13.27          154.5          27.02         -15.57          121.8          72.34
    0.6327              -40.91          7.966          12.54          48.58          8.672          13.27          154.5          27.03         -15.56          121.8          72.31
     0.666              -40.89          7.973          12.54          48.59           8.66          13.26          154.5          27.04         -15.56          121.8          72.28
    0.6993              -40.87          7.981          12.53           48.6          8.647          13.25          154.5          27.06         -15.56          121.7          72.24
    0.7326              -40.85          7.989          12.52           48.6          8.633          13.24          154.5          27.07         -15.56          121.7           72.2
    0.7659              -40.83          7.999          12.52          48.61          8.617          13.23          154.5          27.08         -15.56          121.7          72.16
    0.7992              -40.81           8.01          12.51          48.62            8.6          13.21          154.5           27.1         -15.56          121.6          72.11
    0.8325              -40.78          8.021           12.5          48.63           8.58           13.2          154.5          27.12         -15.56          121.6          72.06
    0.8658              -40.75          8.034          12.49          48.64          8.559          13.18          154.5          27.14         -15.56          121.5           72.0
    0.8991              -40.72          8.049          12.48          48.66          8.534          13.16          154.5          27.16         -15.55          121.5          71.94
    0.9324              -40.68          8.066          12.46          48.67          8.506          13.14          154.5          27.18         -15.55          121.4          71.86
    0.9657              -40.63          8.085          12.45          48.69          8.475          13.12          154.5          27.21         -15.55          121.3          71.78
     0.999              -40.58          8.107          12.43          48.71          8.439          13.09          154.5          27.24         -15.55          121.2          71.68
     1.032              -40.53          8.132          12.41          48.73          8.398          13.06          154.5          27.28         -15.54          121.1          71.57
     1.066              -40.46          8.161          12.39          48.76           8.35          13.02          154.5          27.33         -15.54          121.0          71.44
     1.099              -40.38          8.194          12.36          48.79          8.295          12.98          154.5          27.38         -15.54          120.8          71.29
     1.132              -40.29          8.233          12.33          48.82          8.231          12.93          154.5          27.43         -15.53          120.7          71.12
     1.166              -40.19          8.279           12.3          48.86          8.154          12.88          154.5           27.5         -15.53          120.5          70.91
     1.199              -40.06          8.334          12.25          48.91          8.064          12.81          154.5          27.59         -15.52          120.3          70.67
     1.232              -39.91            8.4           12.2          48.97          7.955          12.73          154.5          27.68         -15.51          120.0          70.38
     1.265              -39.73           8.48          12.14          49.04          7.824          12.63          154.5           27.8          -15.5          119.7          70.02
     1.299              -39.51          8.577          12.06          49.13          7.663          12.51          154.4          27.95         -15.49          119.3          69.59
     1.332              -39.24          8.697          11.97          49.23          7.465          12.36          154.4          28.13         -15.48          118.8          69.06
     1.365              -38.89          8.846          11.85          49.37          7.218          12.17          154.4          28.35         -15.46          118.1          68.39
     1.399              -38.46          9.035           11.7          49.54          6.907          11.94          154.4          28.64         -15.44          117.3          67.55
     1.432              -37.91          9.274          11.52          49.75          6.512          11.64          154.4           29.0         -15.41          116.3          66.49
     1.465              -37.21          9.581          11.28          50.02          6.006          11.26          154.4          29.46         -15.37          115.1          65.12
     1.499              -36.31          9.974          10.97          50.37          5.356          10.78          154.4          30.05         -15.33          113.4          63.37
     1.532              -35.17          10.48          10.58          50.82          4.527          10.15          154.3           30.8         -15.27          111.3          61.14
     1.565              -33.72          11.11          10.08          51.39          3.484          9.371          154.3          31.75         -15.19          108.7          58.33
     1.598              -31.96          11.88          9.478          52.08          2.212          8.417          154.3           32.9          -15.1          105.5           54.9
     1.632              -29.92          12.77          8.779          52.87         0.7388          7.311          154.2          34.24          -15.0          101.8          50.93
     1.665              -27.71          13.74          8.022          53.73        -0.8568          6.113          154.2          35.69         -14.88          97.73          46.63
     1.698               -25.5           14.7          7.266           54.6         -2.452          4.915          154.1          37.14         -14.77           93.7          42.33
     1.732              -23.46           15.6          6.567          55.39         -3.926          3.809          154.0          38.48         -14.66          89.98          38.36
     1.765               -21.7          16.37          5.964          56.08         -5.197          2.855          154.0          39.63         -14.57          86.77          34.94
